<svg xmlns="http://www.w3.org/2000/svg" xmlns:xlink="http://www.w3.org/1999/xlink" width="300" zoomAndPan="magnify" viewBox="0 0 224.87999 225" height="300" preserveAspectRatio="xMidYMid meet" version="1.0"><defs><g/></defs><g fill="#545454" fill-opacity="1"><g transform="translate(72.3298, 126.059653)"><g><path d="M 42.546875 0 L 42.71875 -16.78125 L 40.203125 -16.78125 L 37.859375 -9 C 36.285156 -4.625 33.632812 -2.351562 29.90625 -2.1875 L 13.859375 -2.1875 L 42.234375 -46.84375 L 42.234375 -48.640625 L 5.515625 -48.640625 L 4.9375 -33.96875 L 7.375 -33.96875 L 10.78125 -41.25 C 12.457031 -44.65625 14.644531 -46.382812 17.34375 -46.4375 L 30.640625 -46.53125 L 1.625 -1.78125 L 1.625 0 Z M 42.546875 0 "/></g></g></g><g fill="#545454" fill-opacity="1"><g transform="translate(106.411114, 162.198852)"><g><path d="M 29.015625 0 L 29.015625 -2.1875 L 19.453125 -2.1875 L 19.453125 -23.828125 L 35.015625 -23.828125 L 35.015625 -26.265625 L 19.453125 -26.265625 L 19.453125 -46.4375 L 28.609375 -46.4375 C 33.472656 -46.4375 36.691406 -43.898438 38.265625 -38.828125 C 38.316406 -38.773438 38.34375 -38.71875 38.34375 -38.65625 L 40.125 -32.671875 L 42.46875 -32.671875 L 42.15625 -48.640625 L 1.625 -48.640625 L 1.625 -46.4375 L 8.109375 -46.4375 L 8.109375 -2.1875 L 1.625 -2.1875 L 1.625 0 Z M 29.015625 0 "/></g></g></g><path stroke-linecap="butt" transform="matrix(0.000000000000000046, -0.74967, 0.7496, 0.000000000000000046, 114.855736, 180.829861)" fill="none" stroke-linejoin="miter" d="M 0.00231513 1.500444 L 166.997646 1.500444 " stroke="#545454" stroke-width="3" stroke-opacity="1" stroke-miterlimit="4"/></svg>